<svg width="13" height="9" viewBox="0 0 13 9" fill="none" xmlns="http://www.w3.org/2000/svg">
<path d="M5.93945 8.03711L0.255859 2.35352C0.119141 2.2168 0.0507812 2.05078 0.0507812 1.85547C0.0507812 1.66016 0.119141 1.49414 0.255859 1.35742L0.900391 0.712891C1.03711 0.576172 1.20312 0.507812 1.39844 0.507812C1.59375 0.488281 1.75977 0.546875 1.89648 0.683594L6.4375 5.22461L10.9785 0.683594C11.1152 0.546875 11.2812 0.488281 11.4766 0.507812C11.6719 0.507812 11.8379 0.576172 11.9746 0.712891L12.6191 1.35742C12.7559 1.49414 12.8242 1.66016 12.8242 1.85547C12.8242 2.05078 12.7559 2.2168 12.6191 2.35352L6.93555 8.03711C6.79883 8.19336 6.63281 8.27148 6.4375 8.27148C6.24219 8.27148 6.07617 8.19336 5.93945 8.03711Z" fill="#979797"/>
</svg>
